<?xml version="1.0" encoding="UTF-8" standalone="no"?>
<!-- Created with Inkscape (http://www.inkscape.org/) -->

<svg
   width="20"
   height="20"
   viewBox="0 0 20 20"
   version="1.1"
   id="svg1"
   inkscape:version="1.3 (0e150ed6c4, 2023-07-21)"
   sodipodi:docname="branch_end_OpenDark.svg"
   xmlns:inkscape="http://www.inkscape.org/namespaces/inkscape"
   xmlns:sodipodi="http://sodipodi.sourceforge.net/DTD/sodipodi-0.dtd"
   xmlns="http://www.w3.org/2000/svg"
   xmlns:svg="http://www.w3.org/2000/svg">
  <sodipodi:namedview
     id="namedview1"
     pagecolor="#242424"
     bordercolor="#000000"
     borderopacity="0.25"
     inkscape:showpageshadow="2"
     inkscape:pageopacity="0.0"
     inkscape:pagecheckerboard="0"
     inkscape:deskcolor="#d1d1d1"
     inkscape:document-units="px"
     showgrid="true"
     inkscape:zoom="45.254834"
     inkscape:cx="13.799631"
     inkscape:cy="10.00998"
     inkscape:window-width="2560"
     inkscape:window-height="1372"
     inkscape:window-x="0"
     inkscape:window-y="0"
     inkscape:window-maximized="1"
     inkscape:current-layer="layer1">
    <inkscape:grid
       id="grid1"
       units="px"
       originx="0"
       originy="0"
       spacingx="1"
       spacingy="1"
       empcolor="#0099e5"
       empopacity="0.30196078"
       color="#0099e5"
       opacity="0.14901961"
       empspacing="5"
       dotted="false"
       gridanglex="30"
       gridanglez="30"
       visible="true" />
  </sodipodi:namedview>
  <defs
     id="defs1" />
  <g
     inkscape:label="Layer 1"
     inkscape:groupmode="layer"
     id="layer1">
    <path
       d="m 9,0 v 6.5175781 0.5019531 c 0,0.069864 0.00249,0.1401175 0.00586,0.2089844 0.00337,0.068867 0.007,0.1372847 0.013672,0.2050781 0.00667,0.067793 0.0155,0.1345285 0.025391,0.2011719 0.00989,0.066644 0.022121,0.1318487 0.035156,0.1972656 0.013036,0.065417 0.026863,0.1311987 0.042969,0.1953126 0.016106,0.064114 0.033634,0.1267189 0.052734,0.1894531 0.0191,0.062734 0.040481,0.1242688 0.0625,0.1855469 0.022019,0.061278 0.04545,0.1218952 0.070312,0.1816406 0.024862,0.059745 0.050495,0.1195982 0.078125,0.1777344 0.02763,0.058136 0.057568,0.1154246 0.087891,0.171875 0.030323,0.05645 0.060811,0.1113275 0.09375,0.1660156 0.032939,0.054688 0.068035,0.1092601 0.1035156,0.1621094 0.035481,0.052849 0.071429,0.1053161 0.109375,0.15625 0.037946,0.050934 0.076851,0.099495 0.1171875,0.1484375 0.040336,0.048942 0.082349,0.097658 0.1250005,0.1445312 0.04265,0.046874 0.08597,0.09199 0.130859,0.1367188 0.04489,0.044728 0.09162,0.088352 0.138672,0.1308593 0.04705,0.042507 0.09539,0.084791 0.144531,0.1250004 0.04914,0.04021 0.09924,0.07935 0.150391,0.117187 0.05115,0.03783 0.103159,0.07399 0.15625,0.109375 0.05309,0.03538 0.107157,0.06871 0.162109,0.101563 0.05495,0.03285 0.111231,0.06545 0.167969,0.0957 0.05674,0.03025 0.113427,0.05837 0.171875,0.08594 0.05845,0.02757 0.117652,0.05526 0.177734,0.08008 0.06008,0.02481 0.121953,0.04638 0.183594,0.06836 0.06164,0.02198 0.122422,0.04343 0.185547,0.0625 0.06312,0.01907 0.126873,0.03665 0.191406,0.05273 0.06453,0.01608 0.1314,0.02995 0.197266,0.04297 0.06586,0.01302 0.132096,0.02528 0.199218,0.03516 0.06712,0.0099 0.134822,0.01873 0.203125,0.02539 0.0683,0.0067 0.137622,0.0103 0.207032,0.01367 C 12.860425,10.99751 12.929561,11 13,11 H 13.5 20 V 10 H 13.5 13 c -0.109719,0 -0.216718,-0.00411 -0.322266,-0.013672 -0.105547,-0.00956 -0.209529,-0.024214 -0.310546,-0.042969 -0.101018,-0.018754 -0.200745,-0.04274 -0.296875,-0.070312 -0.09613,-0.027572 -0.188413,-0.059686 -0.279297,-0.095703 -0.09089,-0.036017 -0.180345,-0.075051 -0.265625,-0.1191407 -0.08528,-0.04409 -0.166776,-0.092742 -0.246094,-0.1445312 -0.07932,-0.051789 -0.155518,-0.1068998 -0.228516,-0.1660156 -0.073,-0.059116 -0.142664,-0.1214304 -0.208984,-0.1875 -0.06632,-0.06607 -0.13017,-0.1363338 -0.189453,-0.2089844 C 10.59306,8.8785213 10.538217,8.8034681 10.486328,8.7246094 10.434439,8.6457506 10.385933,8.5632097 10.341797,8.4785156 10.297661,8.3938216 10.258681,8.3069534 10.222656,8.2167969 10.186631,8.1266403 10.154509,8.0327462 10.126953,7.9375 10.099397,7.8422538 10.075369,7.7444943 10.056641,7.6445312 10.037912,7.5445682 10.023215,7.4421977 10.013672,7.3378906 10.004128,7.2335835 10,7.1278095 10,7.0195312 V 6.5175781 0 Z"
       style="fill:#868e96;stroke-width:1.00157;stroke-linecap:square;stroke-linejoin:round;stroke-miterlimit:100"
       id="path6" />
  </g>
</svg>
